<svg width="109" height="11" viewBox="0 0 109 11" fill="none" xmlns="http://www.w3.org/2000/svg">
<path d="M59.5755 6.01414C59.5758 6.31029 59.4883 6.59988 59.324 6.84628C59.1597 7.09268 58.926 7.28481 58.6525 7.39836C58.379 7.51191 58.0779 7.54177 57.7874 7.48418C57.4969 7.42659 57.2301 7.28413 57.0206 7.07482C56.811 6.86552 56.6683 6.59877 56.6105 6.30833C56.5526 6.01789 56.5822 5.71681 56.6955 5.44319C56.8088 5.16956 57.0007 4.93569 57.2469 4.77117C57.4932 4.60664 57.7827 4.51885 58.0788 4.5189C58.4751 4.52021 58.8548 4.67811 59.1352 4.9582C59.4155 5.23829 59.5738 5.61785 59.5755 6.01414V6.01414Z" fill="#DAF6FF"/>
<path d="M67.2188 6.00144C67.2191 6.29759 67.1316 6.58718 66.9673 6.83358C66.803 7.07998 66.5693 7.27211 66.2958 7.38566C66.0223 7.49921 65.7213 7.52908 65.4308 7.47149C65.1403 7.4139 64.8734 7.27144 64.6639 7.06213C64.4544 6.85282 64.3116 6.58607 64.2538 6.29563C64.1959 6.00519 64.2255 5.70411 64.3388 5.43049C64.4521 5.15687 64.644 4.923 64.8902 4.75847C65.1365 4.59395 65.426 4.50615 65.7221 4.5062C66.1188 4.50627 66.4992 4.66379 66.7798 4.94414C67.0605 5.2245 67.2183 5.60477 67.2188 6.00144Z" fill="#DAF6FF"/>
<path d="M74.8618 5.98809C74.8627 6.28419 74.7757 6.57387 74.6119 6.82053C74.4481 7.06719 74.2148 7.25973 73.9416 7.37379C73.6683 7.48786 73.3674 7.51833 73.0769 7.46135C72.7863 7.40437 72.5192 7.2625 72.3092 7.05368C72.0993 6.84487 71.956 6.57849 71.8975 6.28823C71.839 5.99798 71.8679 5.69688 71.9805 5.42304C72.0931 5.1492 72.2844 4.91491 72.5302 4.7498C72.776 4.58469 73.0652 4.49618 73.3613 4.49547C73.558 4.49438 73.753 4.53218 73.935 4.60671C74.117 4.68123 74.2825 4.79101 74.422 4.92973C74.5614 5.06845 74.6721 5.23336 74.7476 5.41499C74.8231 5.59663 74.8619 5.7914 74.8618 5.98809V5.98809Z" fill="#DAF6FF"/>
<path d="M82.5077 5.98094C82.5081 6.27709 82.4205 6.56668 82.2563 6.81308C82.092 7.05948 81.8583 7.2516 81.5848 7.36515C81.3112 7.47871 81.0102 7.50858 80.7197 7.45099C80.4292 7.3934 80.1623 7.25094 79.9528 7.04163C79.7433 6.83232 79.6006 6.56557 79.5427 6.27513C79.4849 5.98469 79.5144 5.68361 79.6277 5.40998C79.741 5.13636 79.9329 4.90249 80.1792 4.73797C80.4254 4.57344 80.7149 4.48565 81.0111 4.4857C81.4077 4.48577 81.7882 4.64328 82.0688 4.92364C82.3494 5.204 82.5073 5.58427 82.5077 5.98094V5.98094Z" fill="#DAF6FF"/>
<path d="M90.1535 5.97149C90.1543 6.26758 90.0673 6.55728 89.9035 6.80393C89.7397 7.05059 89.5065 7.24313 89.2332 7.35719C88.96 7.47126 88.659 7.50173 88.3685 7.44475C88.0779 7.38777 87.8108 7.2459 87.6009 7.03708C87.3909 6.82826 87.2477 6.56188 87.1891 6.27163C87.1306 5.98137 87.1595 5.68028 87.2721 5.40644C87.3847 5.1326 87.576 4.89831 87.8218 4.7332C88.0676 4.56809 88.3568 4.47958 88.6529 4.47887C89.0494 4.47914 89.4298 4.63624 89.7109 4.91587C89.992 5.19551 90.1511 5.57498 90.1535 5.97149Z" fill="#DAF6FF"/>
<path d="M94.8072 5.96475C94.8069 5.6686 94.8944 5.37901 95.0587 5.13261C95.223 4.88621 95.4567 4.69408 95.7302 4.58053C96.0037 4.46698 96.3048 4.43711 96.5953 4.4947C96.8858 4.55229 97.1527 4.69475 97.3622 4.90406C97.5717 5.11337 97.7144 5.38012 97.7723 5.67056C97.8301 5.961 97.8005 6.26208 97.6872 6.5357C97.574 6.80932 97.382 7.0432 97.1358 7.20773C96.8896 7.37225 96.6001 7.46004 96.3039 7.45999C96.1073 7.46057 95.9126 7.4223 95.7308 7.34738C95.549 7.27246 95.3839 7.16237 95.2448 7.02343C95.1057 6.88448 94.9955 6.71943 94.9204 6.53775C94.8453 6.35607 94.8069 6.16134 94.8072 5.96475V5.96475Z" fill="#DAF6FF"/>
<path d="M101.519 10.9811L101.507 1.52543L107.986 6.24724L101.519 10.9811Z" fill="#DAF6FF"/>
<path d="M48.5783 6.01414C48.578 6.31029 48.6655 6.59988 48.8298 6.84628C48.9941 7.09268 49.2278 7.28481 49.5013 7.39836C49.7748 7.51191 50.0759 7.54177 50.3664 7.48418C50.6569 7.42659 50.9237 7.28413 51.1333 7.07482C51.3428 6.86552 51.4855 6.59877 51.5433 6.30833C51.6012 6.01789 51.5716 5.71681 51.4583 5.44319C51.345 5.16956 51.1531 4.93569 50.9069 4.77117C50.6607 4.60664 50.3711 4.51885 50.075 4.5189C49.6787 4.52021 49.299 4.67811 49.0186 4.9582C48.7383 5.23829 48.58 5.61785 48.5783 6.01414V6.01414Z" fill="#DAF6FF"/>
<path d="M40.935 6.00144C40.9347 6.29759 41.0222 6.58718 41.1865 6.83358C41.3508 7.07998 41.5845 7.27211 41.858 7.38566C42.1315 7.49921 42.4326 7.52908 42.7231 7.47149C43.0135 7.4139 43.2804 7.27144 43.4899 7.06213C43.6995 6.85282 43.8422 6.58607 43.9 6.29563C43.9579 6.00519 43.9283 5.70411 43.815 5.43049C43.7017 5.15687 43.5098 4.923 43.2636 4.75847C43.0173 4.59395 42.7278 4.50615 42.4317 4.5062C42.035 4.50627 41.6546 4.66379 41.374 4.94414C41.0933 5.2245 40.9355 5.60477 40.935 6.00144Z" fill="#DAF6FF"/>
<path d="M33.292 5.98809C33.2911 6.28419 33.3781 6.57387 33.5419 6.82053C33.7057 7.06719 33.939 7.25973 34.2122 7.37379C34.4855 7.48786 34.7864 7.51833 35.077 7.46135C35.3675 7.40437 35.6347 7.2625 35.8446 7.05368C36.0545 6.84487 36.1978 6.57849 36.2563 6.28823C36.3148 5.99798 36.2859 5.69688 36.1733 5.42304C36.0607 5.1492 35.8694 4.91491 35.6236 4.7498C35.3778 4.58469 35.0886 4.49618 34.7925 4.49547C34.5958 4.49438 34.4008 4.53218 34.2188 4.60671C34.0368 4.68123 33.8713 4.79101 33.7318 4.92973C33.5924 5.06845 33.4817 5.23336 33.4062 5.41499C33.3307 5.59663 33.2919 5.7914 33.292 5.98809V5.98809Z" fill="#DAF6FF"/>
<path d="M25.6461 5.98094C25.6458 6.27709 25.7333 6.56668 25.8976 6.81308C26.0618 7.05948 26.2955 7.2516 26.5691 7.36515C26.8426 7.47871 27.1436 7.50858 27.4341 7.45099C27.7246 7.3934 27.9915 7.25094 28.201 7.04163C28.4105 6.83232 28.5532 6.56557 28.6111 6.27513C28.669 5.98469 28.6394 5.68361 28.5261 5.40998C28.4128 5.13636 28.2209 4.90249 27.9746 4.73797C27.7284 4.57344 27.4389 4.48565 27.1427 4.4857C26.7461 4.48577 26.3656 4.64328 26.085 4.92364C25.8044 5.204 25.6465 5.58427 25.6461 5.98094V5.98094Z" fill="#DAF6FF"/>
<path d="M18.0003 5.97149C17.9995 6.26758 18.0865 6.55728 18.2503 6.80393C18.4141 7.05059 18.6474 7.24313 18.9206 7.35719C19.1938 7.47126 19.4948 7.50173 19.7853 7.44475C20.0759 7.38777 20.343 7.2459 20.553 7.03708C20.7629 6.82826 20.9061 6.56188 20.9647 6.27163C21.0232 5.98137 20.9943 5.68028 20.8817 5.40644C20.7691 5.1326 20.5778 4.89831 20.332 4.7332C20.0862 4.56809 19.797 4.47958 19.5009 4.47887C19.1044 4.47914 18.7241 4.63624 18.4429 4.91587C18.1618 5.19551 18.0027 5.57498 18.0003 5.97149Z" fill="#DAF6FF"/>
<path d="M13.3466 5.96475C13.3469 5.6686 13.2594 5.37901 13.0951 5.13261C12.9308 4.88621 12.6971 4.69408 12.4236 4.58053C12.1501 4.46698 11.849 4.43711 11.5585 4.4947C11.268 4.55229 11.0012 4.69475 10.7916 4.90406C10.5821 5.11337 10.4394 5.38012 10.3816 5.67056C10.3237 5.961 10.3533 6.26208 10.4666 6.5357C10.5799 6.80932 10.7718 7.0432 11.018 7.20773C11.2642 7.37225 11.5538 7.46004 11.8499 7.45999C12.0465 7.46057 12.2413 7.4223 12.423 7.34738C12.6048 7.27246 12.7699 7.16237 12.909 7.02343C13.0481 6.88448 13.1583 6.71943 13.2334 6.53775C13.3085 6.35607 13.347 6.16134 13.3466 5.96475V5.96475Z" fill="#DAF6FF"/>
<path d="M6.63432 10.9811L6.64692 1.52543L0.167704 6.24724L6.63432 10.9811Z" fill="#DAF6FF"/>
</svg>
