<svg width="282" height="310" viewBox="0 0 282 310" fill="none" xmlns="http://www.w3.org/2000/svg">
<g filter="url(#filter0_d_51_15767)">
<path style="mix-blend-mode:multiply" opacity="0.3" d="M181.124 182.559L140.183 205.776L100 182.559L140.94 158.903L181.124 182.559Z" fill="url(#paint0_linear_51_15767)"/>
<path style="mix-blend-mode:multiply" opacity="0.4" d="M181.124 174.353L140.183 197.57L100 174.353L140.94 150.697L181.124 174.353Z" fill="url(#paint1_linear_51_15767)"/>
<g style="mix-blend-mode:overlay">
<g style="mix-blend-mode:overlay" opacity="0.11">
<path d="M156.42 118.718C154.394 118.718 152.554 119.286 151.045 120.405C148.811 122.062 147.581 124.761 147.581 128.004C147.581 134.961 153.239 142.343 160.193 144.458C163.649 145.511 166.864 145.115 169.247 143.348C171.481 141.691 172.71 138.992 172.71 135.749C172.71 128.792 167.053 121.41 160.099 119.295C158.908 118.922 157.668 118.728 156.42 118.718V118.718ZM163.874 145.361C162.593 145.351 161.321 145.152 160.099 144.77C153.018 142.608 147.256 135.094 147.256 128.004C147.256 124.656 148.533 121.864 150.852 120.144C153.32 118.313 156.637 117.903 160.193 118.983C167.274 121.145 173.036 128.659 173.036 135.749C173.036 139.099 171.759 141.89 169.44 143.61C167.876 144.771 165.967 145.361 163.874 145.361Z" fill="white"/>
</g>
<g style="mix-blend-mode:overlay" opacity="0.22">
<path d="M156.822 120.158C155.02 120.158 153.382 120.663 152.04 121.659C150.051 123.133 148.954 125.536 148.954 128.423C148.954 134.622 153.996 141.197 160.191 143.09C163.277 144.027 166.131 143.675 168.25 142.103C170.239 140.627 171.336 138.225 171.336 135.338C171.336 129.141 166.294 122.565 160.099 120.671C159.038 120.34 157.934 120.167 156.822 120.158V120.158ZM163.471 143.922C162.327 143.913 161.191 143.735 160.099 143.394C153.774 141.47 148.632 134.748 148.632 128.418C148.632 125.426 149.774 122.93 151.845 121.393C154.051 119.757 157.015 119.386 160.193 120.356C166.518 122.28 171.66 129.002 171.66 135.332C171.66 138.325 170.518 140.82 168.446 142.358C167.047 143.394 165.342 143.922 163.471 143.922Z" fill="white"/>
</g>
<g style="mix-blend-mode:overlay" opacity="0.33">
<path d="M157.225 121.598C155.645 121.598 154.209 122.041 153.033 122.913C151.292 124.205 150.332 126.31 150.332 128.842C150.332 134.281 154.755 140.052 160.193 141.707C162.891 142.527 165.401 142.22 167.259 140.841C169 139.55 169.96 137.444 169.96 134.912C169.96 129.473 165.537 123.702 160.099 122.048C159.168 121.758 158.2 121.606 157.225 121.598V121.598ZM163.072 142.482C162.064 142.475 161.064 142.319 160.102 142.019C154.537 140.321 150.01 134.415 150.01 128.843C150.01 126.206 151.015 124.008 152.842 122.654C154.786 121.212 157.398 120.887 160.196 121.738C165.761 123.436 170.288 129.342 170.288 134.914C170.288 137.551 169.283 139.749 167.456 141.105C166.182 142.028 164.644 142.511 163.072 142.482Z" fill="white"/>
</g>
<g style="mix-blend-mode:overlay" opacity="0.44">
<path d="M157.627 123.037C156.337 123.013 155.073 123.41 154.027 124.167C152.53 125.277 151.713 127.085 151.713 129.262C151.713 133.943 155.52 138.908 160.198 140.332C162.512 141.037 164.671 140.773 166.27 139.589C167.766 138.481 168.584 136.671 168.584 134.494C168.584 129.815 164.776 124.85 160.099 123.424C159.299 123.174 158.466 123.044 157.627 123.037V123.037ZM162.666 141.044C161.795 141.037 160.93 140.902 160.099 140.642C155.292 139.18 151.381 134.074 151.381 129.26C151.381 126.98 152.253 125.078 153.834 123.906C155.514 122.659 157.772 122.378 160.193 123.114C165 124.576 168.909 129.682 168.909 134.494C168.909 136.775 168.039 138.677 166.458 139.85C165.357 140.649 164.026 141.068 162.666 141.044V141.044Z" fill="white"/>
</g>
<g style="mix-blend-mode:overlay" opacity="0.56">
<path d="M158.03 124.481C156.951 124.461 155.895 124.792 155.02 125.425C153.771 126.351 153.083 127.864 153.083 129.683C153.083 133.604 156.271 137.765 160.193 138.959C162.134 139.548 163.937 139.328 165.271 138.341C166.521 137.415 167.209 135.902 167.209 134.083C167.209 130.161 164.02 126.001 160.099 124.809C159.429 124.598 158.732 124.487 158.03 124.481V124.481ZM162.263 139.612C161.53 139.605 160.803 139.491 160.103 139.272C156.055 138.037 152.762 133.74 152.762 129.686C152.762 127.762 153.498 126.157 154.832 125.167C156.251 124.114 158.157 123.876 160.198 124.497C164.246 125.732 167.539 130.029 167.539 134.083C167.539 136.008 166.803 137.612 165.469 138.603C164.538 139.279 163.413 139.633 162.263 139.612V139.612Z" fill="white"/>
</g>
<g style="mix-blend-mode:overlay" opacity="0.67">
<path d="M158.433 125.916C157.566 125.901 156.717 126.167 156.014 126.674C155.011 127.42 154.457 128.635 154.457 130.097C154.457 133.259 157.03 136.616 160.193 137.578C161.754 138.053 163.204 137.877 164.278 137.08C165.282 136.336 165.835 135.121 165.835 133.658C165.835 130.496 163.261 127.141 160.099 126.177C159.559 126.009 158.998 125.921 158.433 125.916ZM161.859 138.164C161.262 138.16 160.669 138.067 160.099 137.889C156.808 136.889 154.132 133.394 154.132 130.097C154.132 128.53 154.732 127.221 155.829 126.414C156.986 125.555 158.539 125.361 160.201 125.867C163.491 126.867 166.168 130.363 166.168 133.658C166.168 135.226 165.568 136.534 164.471 137.343C163.712 137.893 162.796 138.181 161.859 138.164V138.164Z" fill="white"/>
</g>
<g style="mix-blend-mode:overlay" opacity="0.78">
<path d="M158.835 127.355C158.18 127.342 157.539 127.543 157.009 127.927C156.25 128.489 155.833 129.409 155.833 130.515C155.833 132.919 157.789 135.469 160.193 136.201C161.376 136.561 162.473 136.428 163.278 135.826C164.037 135.264 164.454 134.345 164.454 133.238C164.454 130.836 162.499 128.286 160.094 127.554C159.687 127.426 159.262 127.359 158.835 127.355ZM161.458 136.724C160.997 136.721 160.54 136.649 160.1 136.511C157.569 135.739 155.509 133.052 155.509 130.515C155.509 129.303 155.972 128.292 156.816 127.666C157.711 127.003 158.911 126.851 160.194 127.242C162.726 128.014 164.786 130.702 164.786 133.238C164.786 134.45 164.323 135.463 163.479 136.088C162.891 136.514 162.182 136.737 161.456 136.724H161.458Z" fill="white"/>
</g>
<g style="mix-blend-mode:overlay" opacity="0.89">
<path d="M159.238 128.795C158.796 128.787 158.363 128.922 158.004 129.181C157.492 129.561 157.209 130.183 157.209 130.933C157.209 132.578 158.548 134.33 160.194 134.824C160.998 135.07 161.737 134.978 162.291 134.572C162.803 134.193 163.086 133.57 163.086 132.82C163.086 131.176 161.746 129.423 160.1 128.929C159.821 128.843 159.53 128.797 159.238 128.795ZM161.055 135.279C160.731 135.276 160.408 135.224 160.099 135.125C158.325 134.585 156.882 132.7 156.882 130.923C156.882 130.067 157.211 129.352 157.808 128.916C158.442 128.452 159.289 128.338 160.193 128.607C161.967 129.146 163.409 131.031 163.409 132.808C163.409 133.665 163.081 134.379 162.484 134.815C162.072 135.124 161.57 135.29 161.055 135.289V135.279Z" fill="white"/>
</g>
<g style="mix-blend-mode:overlay">
<path d="M159.641 130.235C159.41 130.23 159.183 130.3 158.996 130.435C158.859 130.544 158.75 130.684 158.678 130.844C158.606 131.003 158.573 131.178 158.582 131.352C158.582 132.239 159.306 133.179 160.193 133.449C160.374 133.516 160.568 133.539 160.76 133.517C160.952 133.494 161.135 133.427 161.296 133.319C161.433 133.211 161.542 133.071 161.614 132.911C161.686 132.752 161.719 132.577 161.709 132.402C161.709 131.518 160.986 130.577 160.099 130.307C159.95 130.261 159.796 130.236 159.641 130.235V130.235ZM160.651 133.846C160.464 133.845 160.278 133.816 160.099 133.759C159.084 133.451 158.258 132.37 158.258 131.352C158.249 131.127 158.293 130.902 158.388 130.697C158.483 130.492 158.625 130.313 158.803 130.174C159.003 130.036 159.234 129.948 159.476 129.917C159.717 129.886 159.962 129.913 160.191 129.995C161.206 130.304 162.032 131.385 162.032 132.402C162.042 132.628 161.997 132.853 161.903 133.058C161.808 133.263 161.665 133.443 161.487 133.582C161.245 133.759 160.951 133.851 160.651 133.846V133.846Z" fill="white"/>
</g>
</g>
<g style="mix-blend-mode:overlay">
<g style="mix-blend-mode:overlay" opacity="0.11">
<path d="M122.471 117.91C115.518 120.027 109.859 127.408 109.859 134.364C109.859 137.606 111.093 140.306 113.324 141.964C115.706 143.731 118.921 144.126 122.377 143.074C129.331 140.958 134.99 133.576 134.99 126.62C134.99 123.377 133.756 120.677 131.525 119.02C130.018 117.903 128.176 117.334 126.15 117.334C124.902 117.344 123.662 117.538 122.471 117.91V117.91ZM113.13 142.225C110.816 140.505 109.535 137.714 109.535 134.364C109.535 127.274 115.296 119.754 122.377 117.6C125.934 116.519 129.251 116.928 131.718 118.759C134.032 120.479 135.314 123.271 135.314 126.62C135.314 133.711 129.553 141.231 122.471 143.385C121.249 143.767 119.977 143.966 118.697 143.976C116.604 143.976 114.695 143.386 113.13 142.225Z" fill="white"/>
</g>
<g style="mix-blend-mode:overlay" opacity="0.22">
<path d="M122.471 119.288C116.275 121.173 111.235 127.748 111.235 133.946C111.235 136.834 112.329 139.237 114.321 140.711C116.44 142.283 119.303 142.635 122.38 141.698C128.577 139.812 133.617 133.237 133.617 127.03C133.617 124.143 132.521 121.741 130.531 120.267C129.189 119.271 127.551 118.766 125.749 118.766C124.636 118.777 123.532 118.953 122.471 119.288V119.288ZM114.123 140.972C112.051 139.428 110.91 136.939 110.91 133.946C110.91 127.616 116.055 120.9 122.377 118.97C125.555 118.003 128.52 118.371 130.724 120.007C132.797 121.551 133.939 124.04 133.939 127.032C133.939 133.362 128.794 140.08 122.471 142.008C121.381 142.352 120.247 142.533 119.104 142.545C117.229 142.545 115.522 142.009 114.123 140.972V140.972Z" fill="white"/>
</g>
<g style="mix-blend-mode:overlay" opacity="0.33">
<path d="M122.471 120.663C117.034 122.318 112.61 128.089 112.61 133.527C112.61 136.059 113.569 138.159 115.311 139.457C117.17 140.834 119.678 141.143 122.377 140.322C127.815 138.667 132.239 132.896 132.239 127.456C132.239 124.926 131.28 122.825 129.538 121.528C128.361 120.656 126.924 120.212 125.345 120.212C124.37 120.221 123.401 120.373 122.471 120.663ZM115.118 139.718C113.292 138.363 112.284 136.167 112.284 133.527C112.284 127.955 116.812 122.045 122.377 120.351C125.177 119.501 127.787 119.825 129.731 121.267C131.557 122.621 132.563 124.818 132.563 127.456C132.563 133.028 128.037 138.94 122.471 140.632C121.51 140.932 120.509 141.088 119.503 141.095C117.931 141.124 116.392 140.641 115.118 139.718V139.718Z" fill="white"/>
</g>
<g style="mix-blend-mode:overlay" opacity="0.44">
<path d="M122.471 122.041C117.792 123.465 113.986 128.43 113.986 133.111C113.986 135.285 114.81 137.094 116.3 138.206C117.897 139.39 120.053 139.653 122.372 138.947C127.051 137.524 130.857 132.558 130.857 127.877C130.857 125.703 130.033 123.894 128.543 122.782C127.497 122.025 126.233 121.628 124.942 121.652C124.104 121.659 123.271 121.791 122.471 122.041ZM116.112 138.465C114.53 137.292 113.66 135.391 113.66 133.111C113.66 128.297 117.571 123.191 122.377 121.729C124.797 120.993 127.056 121.266 128.737 122.521C130.317 123.693 131.189 125.595 131.189 127.876C131.189 132.69 127.278 137.795 122.471 139.257C121.64 139.517 120.775 139.652 119.905 139.659C118.545 139.684 117.213 139.265 116.112 138.465Z" fill="white"/>
</g>
<g style="mix-blend-mode:overlay" opacity="0.56">
<path d="M122.471 123.417C118.551 124.61 115.36 128.771 115.36 132.693C115.36 134.511 116.049 136.023 117.298 136.951C118.633 137.94 120.436 138.159 122.377 137.568C126.298 136.375 129.489 132.214 129.489 128.292C129.489 126.474 128.799 124.962 127.549 124.034C126.675 123.402 125.618 123.071 124.54 123.091C123.838 123.097 123.141 123.207 122.471 123.417V123.417ZM117.099 137.212C115.765 136.222 115.029 134.616 115.029 132.693C115.029 128.637 118.322 124.337 122.371 123.105C124.411 122.487 126.318 122.722 127.738 123.775C129.072 124.765 129.806 126.37 129.806 128.294C129.806 132.348 126.513 136.65 122.465 137.88C121.765 138.099 121.038 138.214 120.305 138.22C119.155 138.241 118.03 137.887 117.099 137.212V137.212Z" fill="white"/>
</g>
<g style="mix-blend-mode:overlay" opacity="0.67">
<path d="M122.471 124.79C119.308 125.752 116.735 129.113 116.735 132.269C116.735 133.733 117.289 134.948 118.293 135.693C119.373 136.489 120.815 136.665 122.377 136.189C125.539 135.227 128.112 131.866 128.112 128.709C128.112 127.247 127.56 126.032 126.556 125.286C125.853 124.778 125.004 124.512 124.137 124.528C123.572 124.532 123.01 124.621 122.471 124.79V124.79ZM118.099 135.954C117.011 135.147 116.411 133.838 116.411 132.269C116.411 128.974 119.088 125.476 122.377 124.479C124.04 123.972 125.592 124.17 126.749 125.025C127.838 125.833 128.446 127.142 128.446 128.709C128.446 132.005 125.769 135.502 122.478 136.501C121.908 136.679 121.315 136.772 120.718 136.777C119.779 136.796 118.86 136.508 118.099 135.957V135.954Z" fill="white"/>
</g>
<g style="mix-blend-mode:overlay" opacity="0.78">
<path d="M122.471 126.169C120.067 126.901 118.111 129.451 118.111 131.854C118.111 132.961 118.528 133.879 119.287 134.443C120.096 135.043 121.195 135.176 122.372 134.816C124.777 134.085 126.733 131.534 126.733 129.13C126.733 128.025 126.315 127.106 125.558 126.543C125.026 126.158 124.385 125.957 123.73 125.97C123.302 125.974 122.878 126.041 122.471 126.169V126.169ZM119.092 134.704C118.25 134.086 117.786 133.067 117.786 131.854C117.786 129.319 119.845 126.627 122.377 125.857C123.66 125.466 124.86 125.618 125.755 126.282C126.599 126.899 127.063 127.918 127.063 129.13C127.063 131.667 125.002 134.358 122.471 135.128C122.031 135.265 121.574 135.337 121.113 135.34C120.388 135.352 119.679 135.129 119.092 134.704V134.704Z" fill="white"/>
</g>
<g style="mix-blend-mode:overlay" opacity="0.89">
<path d="M122.471 127.545C120.825 128.047 119.486 129.791 119.486 131.436C119.486 132.186 119.768 132.81 120.28 133.19C120.829 133.596 121.573 133.685 122.377 133.441C124.023 132.94 125.362 131.195 125.362 129.551C125.362 128.8 125.081 128.177 124.569 127.797C124.21 127.538 123.777 127.403 123.335 127.411C123.042 127.413 122.751 127.458 122.471 127.545V127.545ZM120.087 133.451C119.49 133.007 119.162 132.293 119.162 131.443C119.162 129.666 120.604 127.781 122.377 127.242C123.282 126.966 124.129 127.074 124.762 127.551C125.359 127.994 125.687 128.709 125.687 129.558C125.687 131.335 124.245 133.221 122.471 133.759C122.162 133.858 121.84 133.91 121.516 133.914C121.002 133.919 120.501 133.756 120.087 133.451Z" fill="white"/>
</g>
<g style="mix-blend-mode:overlay">
<path d="M122.471 128.922C121.584 129.192 120.862 130.133 120.862 131.017C120.851 131.193 120.883 131.369 120.955 131.531C121.027 131.692 121.136 131.833 121.274 131.944C121.434 132.051 121.618 132.118 121.81 132.14C122.001 132.163 122.196 132.139 122.377 132.072C123.265 131.802 123.987 130.861 123.987 129.975C123.996 129.8 123.963 129.626 123.891 129.466C123.82 129.307 123.711 129.167 123.574 129.058C123.386 128.923 123.16 128.852 122.929 128.857C122.774 128.857 122.619 128.878 122.471 128.922V128.922ZM121.082 132.197C120.904 132.058 120.762 131.878 120.667 131.673C120.572 131.468 120.528 131.243 120.538 131.017C120.538 130 121.363 128.919 122.378 128.61C122.607 128.528 122.853 128.502 123.094 128.533C123.335 128.564 123.566 128.652 123.767 128.789C123.944 128.928 124.086 129.108 124.181 129.313C124.276 129.517 124.32 129.742 124.311 129.967C124.311 130.986 123.484 132.067 122.469 132.376C122.29 132.431 122.104 132.461 121.917 132.462C121.617 132.468 121.324 132.376 121.081 132.201L121.082 132.197Z" fill="white"/>
</g>
</g>
<path opacity="0.45" d="M181.112 166.538L140.929 143.321V96.0107L181.112 119.228V166.538Z" fill="url(#paint2_linear_51_15767)"/>
<path opacity="0.45" d="M181.124 166.967L140.183 190.185L100 166.967L140.94 143.312L181.124 166.967Z" fill="url(#paint3_linear_51_15767)"/>
<path opacity="0.45" d="M140.183 190.175L100 166.958V119.646L140.183 142.864V190.175Z" fill="url(#paint4_linear_51_15767)"/>
<path opacity="0.45" d="M181.124 166.968L140.182 190.186V142.875L181.124 119.218V166.968Z" fill="url(#paint5_linear_51_15767)"/>
<path opacity="0.45" d="M181.124 119.217L140.183 142.873L100 119.654L140.94 96L181.124 119.217Z" fill="url(#paint6_linear_51_15767)"/>
</g>
<defs>
<filter id="filter0_d_51_15767" x="0" y="0" width="281.124" height="309.776" filterUnits="userSpaceOnUse" color-interpolation-filters="sRGB">
<feFlood flood-opacity="0" result="BackgroundImageFix"/>
<feColorMatrix in="SourceAlpha" type="matrix" values="0 0 0 0 0 0 0 0 0 0 0 0 0 0 0 0 0 0 127 0" result="hardAlpha"/>
<feOffset dy="4"/>
<feGaussianBlur stdDeviation="50"/>
<feComposite in2="hardAlpha" operator="out"/>
<feColorMatrix type="matrix" values="0 0 0 0 0.258824 0 0 0 0 0.909804 0 0 0 0 0.878431 0 0 0 0.5 0"/>
<feBlend mode="normal" in2="BackgroundImageFix" result="effect1_dropShadow_51_15767"/>
<feBlend mode="normal" in="SourceGraphic" in2="effect1_dropShadow_51_15767" result="shape"/>
</filter>
<linearGradient id="paint0_linear_51_15767" x1="100454" y1="-14804.9" x2="96088.3" y2="-31923.4" gradientUnits="userSpaceOnUse">
<stop stop-color="#2B369E"/>
<stop offset="1" stop-color="#00BD90"/>
</linearGradient>
<linearGradient id="paint1_linear_51_15767" x1="102042" y1="-18218.4" x2="97675.8" y2="-35336.5" gradientUnits="userSpaceOnUse">
<stop stop-color="#2B369E"/>
<stop offset="1" stop-color="#00BD90"/>
</linearGradient>
<linearGradient id="paint2_linear_51_15767" x1="56415.9" y1="195719" x2="36471.1" y2="174490" gradientUnits="userSpaceOnUse">
<stop stop-color="#4557FF"/>
<stop offset="1" stop-color="#00FFC3"/>
</linearGradient>
<linearGradient id="paint3_linear_51_15767" x1="81131" y1="32905.2" x2="87686.8" y2="13253.4" gradientUnits="userSpaceOnUse">
<stop stop-color="#4557FF"/>
<stop offset="1" stop-color="#00FFC3"/>
</linearGradient>
<linearGradient id="paint4_linear_51_15767" x1="48301.1" y1="123312" x2="22699" y2="98047.9" gradientUnits="userSpaceOnUse">
<stop stop-color="#4557FF"/>
<stop offset="1" stop-color="#00FFC3"/>
</linearGradient>
<linearGradient id="paint5_linear_51_15767" x1="54420.2" y1="107183" x2="45387.9" y2="98157.8" gradientUnits="userSpaceOnUse">
<stop stop-color="#4557FF"/>
<stop offset="1" stop-color="#00FFC3"/>
</linearGradient>
<linearGradient id="paint6_linear_51_15767" x1="103408" y1="59114.7" x2="86743.4" y2="43670.5" gradientUnits="userSpaceOnUse">
<stop stop-color="#4EEEE7"/>
<stop offset="1" stop-color="#00FFC3"/>
</linearGradient>
</defs>
</svg>
