<svg width="355" height="350" viewBox="0 0 355 350" fill="none" xmlns="http://www.w3.org/2000/svg">
<path d="M177.5 273.14C231.018 273.14 274.403 229.807 274.403 176.353C274.403 122.899 231.018 79.5664 177.5 79.5664C123.982 79.5664 80.5969 122.899 80.5969 176.353C80.5969 229.807 123.982 273.14 177.5 273.14Z" fill="#42E8E0"/>
<path d="M301.479 121.729H349.159" stroke="#1E2D6E" stroke-width="8" stroke-linecap="round" stroke-linejoin="round"/>
<path d="M326.032 176.33H349.16" stroke="#1E2D6E" stroke-width="8" stroke-linecap="round" stroke-linejoin="round"/>
<path d="M301.479 230.953H349.159" stroke="#1E2D6E" stroke-width="8" stroke-linecap="round" stroke-linejoin="round"/>
<path d="M53.4976 121.729H5.84033" stroke="#9DBBC9" stroke-width="8" stroke-linecap="round" stroke-linejoin="round"/>
<path d="M29.669 176.354H5.84033" stroke="#9DBBC9" stroke-width="8" stroke-linecap="round" stroke-linejoin="round"/>
<path d="M53.4976 230.953H5.84033" stroke="#9DBBC9" stroke-width="8" stroke-linecap="round" stroke-linejoin="round"/>
<path d="M232.189 53.434V5.83398" stroke="#1E2D6E" stroke-width="8" stroke-linecap="round" stroke-linejoin="round"/>
<path d="M177.5 29.634V5.83398" stroke="#1E2D6E" stroke-width="8" stroke-linecap="round" stroke-linejoin="round"/>
<path d="M122.811 53.434V5.83398" stroke="#1E2D6E" stroke-width="8" stroke-linecap="round" stroke-linejoin="round"/>
<path d="M122.811 296.566V344.166" stroke="#9DBBC9" stroke-width="8" stroke-linecap="round" stroke-linejoin="round"/>
<path d="M177.5 320.366V344.166" stroke="#9DBBC9" stroke-width="8" stroke-linecap="round" stroke-linejoin="round"/>
<path d="M232.189 296.566V344.166" stroke="#9DBBC9" stroke-width="8" stroke-linecap="round" stroke-linejoin="round"/>
<path d="M297.204 121.73V295.913H57.7727V56.7695H297.204" stroke="#1E2D6E" stroke-width="10" stroke-linecap="round" stroke-linejoin="round"/>
<g clip-path="url(#clip0_69_3462)">
<g opacity="0.49">
<path opacity="0.49" d="M157.055 139.853L140.025 125.642V120.518C140.025 118.259 140.922 116.092 142.519 114.495C144.116 112.897 146.282 112 148.54 112C149.659 112 150.766 112.22 151.799 112.648C152.832 113.076 153.771 113.704 154.561 114.495C155.352 115.286 155.979 116.225 156.407 117.258C156.835 118.292 157.055 119.399 157.055 120.518V139.853Z" fill="white"/>
<path opacity="0.49" d="M215.802 120.518V203.603C215.802 209.234 214.616 214.515 212.277 219.303C211.868 220.145 211.424 220.967 210.944 221.769C208.861 225.249 206.185 228.337 203.037 230.895C199.411 233.861 195.211 236.167 190.555 237.732C186.087 239.237 181.405 240.003 176.691 240C167.121 240 158.233 236.842 151.665 231.107C146.355 226.471 140.02 217.936 140.02 203.603V162.589L157.055 176.797V203.6C157.055 209.976 159.016 214.906 162.864 218.271C166.329 221.297 171.24 222.962 176.691 222.962C183.923 222.962 194.039 219.529 197.529 210.572C198.32 208.54 198.771 206.225 198.771 203.6V120.518C198.771 118.259 199.668 116.092 201.265 114.495C202.862 112.897 205.028 112 207.287 112C209.545 112 211.711 112.897 213.308 114.495C214.905 116.092 215.802 118.259 215.802 120.518V120.518Z" fill="white"/>
</g>
<path d="M157.055 139.853L140.025 125.642V120.518C140.025 118.259 140.922 116.092 142.519 114.495C144.116 112.897 146.282 112 148.54 112C149.659 112 150.766 112.22 151.799 112.648C152.832 113.076 153.771 113.704 154.561 114.495C155.352 115.286 155.979 116.225 156.407 117.258C156.835 118.292 157.055 119.399 157.055 120.518V139.853Z" fill="white"/>
<path d="M215.802 120.518V203.603C215.802 208.216 215.005 212.596 213.432 216.66C213.085 217.559 212.7 218.44 212.277 219.303C211.868 220.145 211.424 220.967 210.944 221.769C208.861 225.249 206.185 228.337 203.037 230.895C199.411 233.861 195.211 236.167 190.555 237.732C186.087 239.237 181.405 240.003 176.691 240C167.121 240 158.233 236.842 151.665 231.107C146.355 226.471 140.02 217.936 140.02 203.603V162.589L157.055 176.797V203.6C157.055 209.976 159.016 214.906 162.864 218.271C166.329 221.297 171.24 222.962 176.691 222.962C183.923 222.962 194.039 219.529 197.529 210.572C199.418 205.719 198.771 200.342 198.771 195.255V120.518C198.771 118.259 199.668 116.092 201.265 114.495C202.862 112.897 205.028 112 207.287 112C209.545 112 211.711 112.897 213.308 114.495C214.905 116.092 215.802 118.259 215.802 120.518V120.518Z" fill="white"/>
<path d="M165.636 154.198L190.191 174.688V197.265L165.636 176.775L131.445 148.243L130.33 147.314V221.918C130.33 224.217 129.417 226.422 127.792 228.047C126.167 229.673 123.963 230.586 121.665 230.586C120.527 230.586 119.4 230.362 118.349 229.926C117.298 229.491 116.343 228.852 115.538 228.047C114.733 227.242 114.095 226.287 113.66 225.235C113.224 224.184 113 223.057 113 221.918V128.794C113.001 127.147 113.47 125.534 114.354 124.144C115.238 122.754 116.5 121.645 117.991 120.947C119.484 120.249 121.144 119.99 122.778 120.202C124.412 120.413 125.952 121.087 127.217 122.143L131.445 125.67L165.636 154.198Z" fill="white"/>
<path d="M224.67 203.46V130.261C224.67 129.097 224.905 127.946 225.361 126.875C225.816 125.804 226.482 124.836 227.319 124.028C228.156 123.22 229.147 122.589 230.234 122.172C231.32 121.756 232.479 121.562 233.641 121.603C238.325 121.761 242.006 125.684 242.006 130.371V221.98C242.007 223.628 241.537 225.242 240.653 226.633C239.769 228.024 238.506 229.134 237.014 229.833C235.521 230.531 233.86 230.79 232.226 230.578C230.592 230.365 229.052 229.692 227.787 228.635L220.31 222.398C223.012 216.61 224.693 210.339 224.693 203.649" fill="white"/>
</g>
<defs>
<clipPath id="clip0_69_3462">
<rect width="129" height="128" fill="white" transform="translate(113 112)"/>
</clipPath>
</defs>
</svg>
