<svg width="347" height="350" viewBox="0 0 347 350" fill="none" xmlns="http://www.w3.org/2000/svg">
<g clip-path="url(#clip0_69_3491)">
<path d="M141.264 272.176V341.618C141.264 346.247 145.028 350 149.672 350H219.337C223.981 350 227.746 346.247 227.746 341.618V272.176C227.746 267.547 223.981 263.794 219.337 263.794H149.672C145.028 263.794 141.264 267.547 141.264 272.176Z" fill="#42E8E0"/>
<path d="M260.518 31.704V101.147C260.518 105.776 264.283 109.528 268.927 109.528H338.592C343.235 109.528 347 105.776 347 101.147V31.704C347 27.0749 343.235 23.3223 338.592 23.3223H268.927C264.283 23.3223 260.518 27.0749 260.518 31.704Z" fill="#42E8E0"/>
<path d="M26.2766 73.6122L26.2766 143.055C26.2766 147.684 30.0412 151.437 34.6852 151.437H104.35C108.994 151.437 112.759 147.684 112.759 143.055V73.6122C112.759 68.9831 108.994 65.2304 104.35 65.2304H34.6852C30.0412 65.2304 26.2766 68.9831 26.2766 73.6122Z" fill="#42E8E0"/>
<path d="M5.25537 44.2764L5.25537 130.482H91.7374V44.2764H5.25537Z" stroke="#1E2D6E" stroke-width="8" stroke-linecap="round" stroke-linejoin="round"/>
<path d="M84.9893 44.2344C102.398 31.8346 122.512 23.733 143.676 20.5964C164.84 17.4598 186.449 19.3779 206.724 26.1928" stroke="#1E2D6E" stroke-width="8" stroke-linecap="round" stroke-linejoin="round"/>
<path d="M120.305 281.018C97.0813 273.154 76.4448 259.133 60.612 240.46C44.7792 221.787 34.3481 199.168 30.439 175.031" stroke="#9DBBC9" stroke-width="8" stroke-linecap="round" stroke-linejoin="round"/>
<path d="M296.338 130.504C300.302 153.349 298.283 176.827 290.476 198.665C282.668 220.504 269.337 239.964 251.773 255.161" stroke="#1E2D6E" stroke-width="8" stroke-linecap="round" stroke-linejoin="round"/>
<path d="M191.19 1.7391L212.8 20.0741C213.778 20.9049 214.52 21.9772 214.952 23.1838C215.384 24.3904 215.49 25.6889 215.26 26.9493C215.03 28.2097 214.472 29.3878 213.642 30.3656C212.812 31.3434 211.738 32.0867 210.529 32.521L183.832 42.139C182.621 42.5669 181.318 42.67 180.054 42.4382C178.79 42.2063 177.61 41.6476 176.63 40.818C175.651 39.9884 174.908 38.9169 174.475 37.7109C174.042 36.5048 173.934 35.2065 174.162 33.9459L179.249 6.07666C179.466 4.80856 180.016 3.62025 180.843 2.63232C181.669 1.64439 182.743 0.891999 183.956 0.45152C185.168 0.0110407 186.476 -0.101834 187.747 0.124301C189.017 0.350436 190.205 0.907532 191.19 1.7391V1.7391Z" fill="#31438D"/>
<path d="M277.966 258.828L251.121 268.446C249.912 268.879 248.609 268.987 247.344 268.759C246.08 268.53 244.898 267.974 243.917 267.145C242.937 266.317 242.193 265.246 241.76 264.039C241.327 262.833 241.221 261.534 241.451 260.274L246.539 232.404C246.777 231.149 247.341 229.977 248.177 229.008C249.012 228.038 250.088 227.304 251.297 226.88C252.507 226.455 253.807 226.355 255.067 226.589C256.327 226.823 257.504 227.383 258.479 228.214L280.068 246.402C281.051 247.218 281.802 248.277 282.246 249.473C282.69 250.669 282.811 251.96 282.599 253.217C282.386 254.474 281.846 255.654 281.033 256.639C280.22 257.623 279.163 258.378 277.966 258.828V258.828Z" fill="#31438D"/>
<path d="M51.1871 199.297L23.6071 205.583C22.3564 205.874 21.051 205.831 19.8221 205.46C18.5932 205.088 17.4842 204.4 16.6064 203.466C15.7286 202.531 15.1131 201.383 14.8217 200.136C14.5303 198.89 14.5733 197.588 14.9463 196.363L23.1867 169.249C23.5625 168.023 24.2547 166.918 25.1937 166.044C26.1328 165.169 27.2859 164.556 28.5376 164.265C29.7893 163.974 31.0956 164.016 32.3258 164.387C33.556 164.758 34.6669 165.444 35.5472 166.378L54.971 187.06C55.8819 188.001 56.523 189.168 56.8275 190.44C57.132 191.712 57.0888 193.042 56.7024 194.292C56.316 195.541 55.6006 196.665 54.6305 197.545C53.6605 198.425 52.4714 199.03 51.1871 199.297V199.297Z" fill="#6373A6"/>
<path d="M239.497 44.2764V130.482H325.979V44.2764H239.497Z" stroke="#9DBBC9" stroke-width="8" stroke-linecap="round" stroke-linejoin="round"/>
<path d="M206.724 242.818H120.242V329.024H206.724V242.818Z" stroke="#1E2D6E" stroke-width="8" stroke-linecap="round" stroke-linejoin="round"/>
</g>
<defs>
<clipPath id="clip0_69_3491">
<rect width="347" height="350" fill="white"/>
</clipPath>
</defs>
</svg>
