<svg width="354" height="350" viewBox="0 0 354 350" fill="none" xmlns="http://www.w3.org/2000/svg">
<path d="M339.51 228.307L348.176 179.009L314.677 173.095C314.582 157.68 311.913 142.392 306.78 127.863L336.202 110.823L311.252 67.391L281.784 84.4784C271.854 72.7545 260.044 62.7762 246.84 54.9553L258.488 22.8843L211.617 5.77344L199.969 37.821C184.825 35.2653 169.361 35.2653 154.217 37.821L142.569 5.77344L95.6283 22.9777L107.276 55.0487C94.0805 62.8818 82.2722 72.8584 72.3327 84.5719L42.6774 67.391L17.7512 110.752L47.3366 127.863C42.208 142.393 39.5311 157.68 39.4161 173.095L5.91699 179.009L14.583 228.307L48.0354 222.393C53.4186 236.827 61.1661 250.258 70.9583 262.132L49.107 288.265L87.3118 320.43L109.163 294.296C122.522 301.902 137.058 307.204 152.167 309.981V344.109H202.043V309.981C217.151 307.204 231.688 301.902 245.046 294.296L266.898 320.43L305.102 288.265L283.251 262.132C293.043 250.262 300.783 236.83 306.151 222.393L339.51 228.307Z" stroke="#31438D" stroke-width="8" stroke-linecap="round" stroke-linejoin="round"/>
<path d="M177 251.005C218.84 251.005 252.757 216.971 252.757 174.989C252.757 133.006 218.84 98.9717 177 98.9717C135.16 98.9717 101.243 133.006 101.243 174.989C101.243 216.971 135.16 251.005 177 251.005Z" fill="#42E8E0"/>
<g clip-path="url(#clip0_69_3504)">
<g opacity="0.49">
<path opacity="0.49" d="M164.029 152.278L152.808 142.952V139.59C152.808 138.107 153.399 136.686 154.451 135.637C155.503 134.589 156.931 134 158.419 134C159.155 134 159.885 134.145 160.566 134.426C161.247 134.706 161.865 135.118 162.386 135.637C162.907 136.156 163.32 136.773 163.602 137.451C163.884 138.129 164.029 138.856 164.029 139.59V152.278Z" fill="white"/>
<path opacity="0.49" d="M202.738 139.59V194.114C202.738 197.81 201.956 201.275 200.415 204.418C200.146 204.97 199.853 205.51 199.537 206.036C198.164 208.32 196.401 210.346 194.327 212.025C191.938 213.971 189.171 215.485 186.102 216.511C183.159 217.499 180.073 218.002 176.967 218C170.661 218 164.805 215.927 160.477 212.164C156.978 209.122 152.804 203.52 152.804 194.114V167.199L164.029 176.523V194.113C164.029 198.297 165.321 201.532 167.856 203.74C170.14 205.726 173.375 206.819 176.967 206.819C181.733 206.819 188.398 204.566 190.698 198.688C191.219 197.354 191.516 195.835 191.516 194.113V139.59C191.516 138.107 192.107 136.686 193.16 135.637C194.212 134.589 195.639 134 197.127 134C198.615 134 200.042 134.589 201.095 135.637C202.147 136.686 202.738 138.107 202.738 139.59V139.59Z" fill="white"/>
</g>
<path d="M164.028 152.278L152.807 142.952V139.59C152.807 138.107 153.398 136.686 154.451 135.637C155.503 134.589 156.93 134 158.418 134C159.155 134 159.885 134.145 160.565 134.426C161.246 134.706 161.865 135.118 162.385 135.637C162.906 136.156 163.32 136.773 163.602 137.451C163.883 138.129 164.029 138.856 164.028 139.59V152.278Z" fill="white"/>
<path d="M202.738 139.59V194.114C202.738 197.142 202.213 200.016 201.176 202.683C200.948 203.273 200.694 203.851 200.415 204.418C200.146 204.97 199.853 205.51 199.537 206.036C198.164 208.32 196.401 210.346 194.327 212.025C191.938 213.971 189.171 215.485 186.102 216.511C183.159 217.499 180.073 218.002 176.967 218C170.661 218 164.805 215.927 160.477 212.164C156.978 209.122 152.804 203.52 152.804 194.114V167.199L164.029 176.523V194.113C164.029 198.297 165.321 201.532 167.856 203.74C170.14 205.726 173.375 206.819 176.967 206.819C181.733 206.819 188.398 204.566 190.698 198.688C191.943 195.503 191.516 191.975 191.516 188.636V139.59C191.516 138.107 192.107 136.686 193.16 135.637C194.212 134.589 195.639 134 197.127 134C198.615 134 200.042 134.589 201.095 135.637C202.147 136.686 202.738 138.107 202.738 139.59V139.59Z" fill="white"/>
<path d="M169.682 161.692L185.862 175.139V189.955L169.682 176.508L147.153 157.784L146.419 157.174V206.134C146.419 207.642 145.818 209.089 144.747 210.156C143.676 211.222 142.224 211.822 140.71 211.822C139.96 211.822 139.217 211.675 138.525 211.389C137.832 211.103 137.202 210.684 136.672 210.156C136.142 209.628 135.722 209 135.435 208.31C135.148 207.62 135 206.881 135 206.134V145.021C135 143.94 135.31 142.881 135.892 141.969C136.475 141.057 137.306 140.33 138.289 139.871C139.272 139.413 140.366 139.243 141.443 139.382C142.52 139.521 143.534 139.963 144.368 140.656L147.153 142.971L169.682 161.692Z" fill="white"/>
<path d="M208.581 194.021V145.984C208.581 145.22 208.736 144.465 209.036 143.762C209.336 143.059 209.775 142.424 210.327 141.894C210.878 141.363 211.531 140.949 212.247 140.676C212.963 140.402 213.726 140.275 214.492 140.302C217.579 140.406 220.004 142.98 220.004 146.056V206.175C220.005 207.256 219.695 208.316 219.113 209.228C218.53 210.141 217.698 210.87 216.714 211.328C215.731 211.787 214.637 211.956 213.56 211.817C212.483 211.678 211.468 211.235 210.635 210.542L205.708 206.449C207.489 202.651 208.596 198.535 208.596 194.145" fill="white"/>
</g>
<path d="M259.187 126.484C270.926 146.511 274.997 170.14 270.64 192.958C266.284 215.777 253.798 236.223 235.515 250.478C217.231 264.734 194.401 271.822 171.289 270.42C148.178 269.018 126.365 259.222 109.926 242.86C93.4872 226.499 83.5467 204.692 81.9615 181.513C80.3763 158.334 87.2549 135.369 101.312 116.907C115.369 98.4461 135.644 85.7513 158.348 81.1945C181.053 76.6377 204.634 80.5306 224.686 92.146" stroke="#9DBBC9" stroke-width="8" stroke-linecap="round" stroke-linejoin="round"/>
<defs>
<clipPath id="clip0_69_3504">
<rect width="85" height="84" fill="white" transform="translate(135 134)"/>
</clipPath>
</defs>
</svg>
