<svg width="211" height="483" viewBox="0 0 211 483" fill="none" xmlns="http://www.w3.org/2000/svg">
<g style="mix-blend-mode:color-dodge">
<path d="M44.8845 482.375L46.5118 246.629L53.9672 240.056L54.1172 218.354" stroke="url(#paint0_linear_55_537)" stroke-width="2.15" stroke-miterlimit="10"/>
<path d="M54.1053 219.004C53.3064 219 52.5268 218.784 51.8651 218.384C51.2034 217.983 50.6893 217.417 50.3879 216.755C50.0864 216.094 50.011 215.367 50.1713 214.667C50.3317 213.967 50.7205 213.326 51.2886 212.824C51.8567 212.321 52.5786 211.981 53.3631 211.846C54.1475 211.71 54.9592 211.786 55.6955 212.063C56.4318 212.34 57.0597 212.806 57.4997 213.403C57.9398 213.999 58.1722 214.698 58.1677 215.413C58.1646 215.887 58.0572 216.356 57.8514 216.793C57.6456 217.23 57.3455 217.627 56.9683 217.96C56.5911 218.294 56.1441 218.558 55.6528 218.737C55.1616 218.916 54.6357 219.006 54.1053 219.004V219.004Z" stroke="#0DF1F9" stroke-width="1.43" stroke-miterlimit="10"/>
<path d="M37.4751 434.719L39.1023 198.984L43.9841 190.966L44.4226 127.533" stroke="url(#paint1_linear_55_537)" stroke-width="2.15" stroke-miterlimit="10"/>
<path d="M44.4226 127.75C43.6232 127.746 42.8432 127.53 42.1813 127.129C41.5193 126.728 41.0053 126.161 40.7041 125.499C40.403 124.837 40.3283 124.11 40.4896 123.409C40.6509 122.709 41.0408 122.068 41.6101 121.566C42.1794 121.064 42.9024 120.725 43.6875 120.591C44.4727 120.456 45.2847 120.534 46.0208 120.812C46.7569 121.091 47.384 121.559 47.8227 122.156C48.2613 122.754 48.4918 123.454 48.485 124.169C48.4835 124.643 48.377 125.113 48.1716 125.55C47.9662 125.987 47.666 126.383 47.2883 126.716C46.9106 127.049 46.4629 127.312 45.971 127.489C45.4792 127.667 44.9529 127.755 44.4226 127.75Z" stroke="#0DF1F9" stroke-width="1.43" stroke-miterlimit="10"/>
<path d="M126.801 482.941L128.428 247.206L135.883 240.622L136.033 218.921" stroke="url(#paint2_linear_55_537)" stroke-width="2.15" stroke-miterlimit="10"/>
<path d="M136.022 219.582C135.223 219.578 134.444 219.362 133.782 218.962C133.12 218.561 132.606 217.995 132.305 217.333C132.003 216.672 131.928 215.945 132.088 215.245C132.248 214.545 132.637 213.904 133.205 213.402C133.773 212.899 134.495 212.559 135.28 212.424C136.064 212.288 136.876 212.364 137.612 212.641C138.349 212.918 138.976 213.385 139.416 213.981C139.857 214.577 140.089 215.276 140.084 215.991C140.075 216.948 139.643 217.863 138.882 218.536C138.121 219.208 137.092 219.585 136.022 219.582Z" stroke="#0DF1F9" stroke-width="1.43" stroke-miterlimit="10"/>
</g>
<g style="mix-blend-mode:color-dodge">
<path d="M74.7002 434.807L73.0729 199.062L65.6176 192.489L65.4675 170.787" stroke="url(#paint3_linear_55_537)" stroke-width="2.15" stroke-miterlimit="10"/>
<path d="M65.4792 171.436C66.2781 171.432 67.0576 171.216 67.7193 170.816C68.381 170.416 68.8951 169.849 69.1966 169.188C69.4981 168.526 69.5735 167.8 69.4131 167.1C69.2528 166.4 68.864 165.758 68.2959 165.256C67.7278 164.754 67.0058 164.414 66.2214 164.278C65.437 164.143 64.6253 164.219 63.889 164.496C63.1527 164.773 62.5248 165.239 62.0848 165.835C61.6447 166.431 61.4123 167.131 61.4168 167.845C61.4198 168.32 61.5273 168.789 61.7331 169.226C61.9389 169.663 62.239 170.06 62.6162 170.393C62.9934 170.727 63.4404 170.99 63.9316 171.169C64.4229 171.348 64.9487 171.439 65.4792 171.436V171.436Z" stroke="#0DF1F9" stroke-width="1.43" stroke-miterlimit="10"/>
<path d="M82.1097 387.151L80.4824 151.416L75.6007 143.398L75.1621 79.9648" stroke="url(#paint4_linear_55_537)" stroke-width="2.15" stroke-miterlimit="10"/>
<path d="M75.1621 80.1825C75.9615 80.1784 76.7415 79.9623 77.4034 79.5615C78.0654 79.1608 78.5795 78.5935 78.8806 77.9314C79.1817 77.2692 79.2564 76.5421 79.0951 75.8421C78.9338 75.142 78.5439 74.5004 77.9746 73.9986C77.4053 73.4969 76.6823 73.1574 75.8972 73.0232C75.112 72.889 74.3 72.9662 73.5639 73.2449C72.8278 73.5236 72.2007 73.9913 71.7621 74.5889C71.3234 75.1864 71.0929 75.8869 71.0998 76.6017C71.1012 77.0759 71.2078 77.5451 71.4132 77.9823C71.6186 78.4196 71.9188 78.8161 72.2965 79.149C72.6741 79.4819 73.1218 79.7446 73.6137 79.922C74.1055 80.0994 74.6318 80.1879 75.1621 80.1825Z" stroke="#0DF1F9" stroke-width="1.43" stroke-miterlimit="10"/>
<path d="M14.2837 460.891L12.6564 225.156L5.20106 218.573L5.05103 196.871" stroke="url(#paint5_linear_55_537)" stroke-width="2.15" stroke-miterlimit="10"/>
<path d="M5.06243 197.532C5.8613 197.528 6.64088 197.312 7.30258 196.912C7.96428 196.512 8.47838 195.945 8.77987 195.283C9.08136 194.622 9.15671 193.895 8.99637 193.195C8.83604 192.496 8.44723 191.854 7.87911 191.352C7.311 190.85 6.58908 190.509 5.80467 190.374C5.02025 190.239 4.20857 190.314 3.47225 190.591C2.73593 190.869 2.10804 191.335 1.668 191.931C1.22796 192.527 0.995514 193.227 1.00007 193.941C1.00921 194.898 1.44161 195.813 2.20279 196.486C2.96397 197.159 3.99206 197.535 5.06243 197.532Z" stroke="#0DF1F9" stroke-width="1.43" stroke-miterlimit="10"/>
</g>
<g style="mix-blend-mode:color-dodge">
<path d="M114.475 362.848L116.102 127.103L123.557 120.53L123.708 98.8281" stroke="url(#paint6_linear_55_537)" stroke-width="2.15" stroke-miterlimit="10"/>
<path d="M123.696 99.4774C122.897 99.4733 122.117 99.2575 121.455 98.8572C120.794 98.4569 120.28 97.8902 119.978 97.2287C119.677 96.5672 119.601 95.8406 119.762 95.1408C119.922 94.441 120.311 93.7994 120.879 93.2972C121.447 92.795 122.169 92.4547 122.953 92.3193C123.738 92.184 124.549 92.2597 125.286 92.5368C126.022 92.8139 126.65 93.28 127.09 93.8762C127.53 94.4724 127.763 95.1719 127.758 95.8863C127.755 96.3606 127.647 96.8297 127.442 97.2669C127.236 97.704 126.936 98.1007 126.559 98.4341C126.181 98.7676 125.734 99.0314 125.243 99.2104C124.752 99.3894 124.226 99.4801 123.696 99.4774V99.4774Z" stroke="#0DF1F9" stroke-width="1.43" stroke-miterlimit="10"/>
<path d="M107.065 315.193L108.693 79.4579L113.574 71.4398L114.013 8.00684" stroke="url(#paint7_linear_55_537)" stroke-width="2.15" stroke-miterlimit="10"/>
<path d="M114.013 8.22348C113.214 8.21937 112.434 8.00327 111.772 7.60254C111.11 7.20182 110.596 6.63449 110.294 5.97237C109.993 5.31026 109.919 4.58314 110.08 3.88307C110.241 3.183 110.631 2.54145 111.2 2.03966C111.77 1.53787 112.493 1.19839 113.278 1.06421C114.063 0.930033 114.875 1.00718 115.611 1.28589C116.347 1.5646 116.974 2.03234 117.413 2.62988C117.852 3.22743 118.082 3.92792 118.075 4.64267C118.074 5.11689 117.967 5.58614 117.762 6.02336C117.556 6.46057 117.256 6.85708 116.879 7.19C116.501 7.52291 116.053 7.78564 115.561 7.96303C115.07 8.14041 114.543 8.22893 114.013 8.22348Z" stroke="#0DF1F9" stroke-width="1.43" stroke-miterlimit="10"/>
<path d="M196.391 363.415L198.018 127.68L205.474 121.096L205.624 99.3945" stroke="url(#paint8_linear_55_537)" stroke-width="2.15" stroke-miterlimit="10"/>
<path d="M205.612 100.056C204.814 100.051 204.034 99.8356 203.372 99.4353C202.711 99.0351 202.196 98.4684 201.895 97.8069C201.593 97.1453 201.518 96.4187 201.678 95.7189C201.839 95.0191 202.228 94.3776 202.796 93.8753C203.364 93.3731 204.086 93.0328 204.87 92.8975C205.655 92.7621 206.466 92.8378 207.203 93.1149C207.939 93.392 208.567 93.8582 209.007 94.4544C209.447 95.0506 209.679 95.7501 209.675 96.4644C209.666 97.4214 209.233 98.3364 208.472 99.0092C207.711 99.6821 206.683 100.058 205.612 100.056Z" stroke="#0DF1F9" stroke-width="1.43" stroke-miterlimit="10"/>
</g>
<defs>
<linearGradient id="paint0_linear_55_537" x1="48.8846" y1="482.431" x2="50.3269" y2="218.373" gradientUnits="userSpaceOnUse">
<stop offset="0.01" stop-color="#050223" stop-opacity="0"/>
<stop offset="1" stop-color="#0CF9FF"/>
</linearGradient>
<linearGradient id="paint1_linear_55_537" x1="41.9243" y1="127.573" x2="40.2461" y2="434.797" gradientUnits="userSpaceOnUse">
<stop stop-color="#0CF9FF"/>
<stop offset="0.99" stop-color="#050223" stop-opacity="0"/>
</linearGradient>
<linearGradient id="paint2_linear_55_537" x1="-24487" y1="25972.4" x2="-24475.4" y2="23860" gradientUnits="userSpaceOnUse">
<stop offset="0.01" stop-color="#050223" stop-opacity="0"/>
<stop offset="1" stop-color="#0CF9FF"/>
</linearGradient>
<linearGradient id="paint3_linear_55_537" x1="70.7001" y1="434.864" x2="69.2578" y2="170.806" gradientUnits="userSpaceOnUse">
<stop offset="0.01" stop-color="#050223" stop-opacity="0"/>
<stop offset="1" stop-color="#0CF9FF"/>
</linearGradient>
<linearGradient id="paint4_linear_55_537" x1="77.6605" y1="80.0048" x2="79.3386" y2="387.229" gradientUnits="userSpaceOnUse">
<stop stop-color="#0CF9FF"/>
<stop offset="0.99" stop-color="#050223" stop-opacity="0"/>
</linearGradient>
<linearGradient id="paint5_linear_55_537" x1="24628.1" y1="25950.4" x2="24616.5" y2="23837.9" gradientUnits="userSpaceOnUse">
<stop offset="0.01" stop-color="#050223" stop-opacity="0"/>
<stop offset="1" stop-color="#0CF9FF"/>
</linearGradient>
<linearGradient id="paint6_linear_55_537" x1="118.475" y1="362.905" x2="119.917" y2="98.8466" gradientUnits="userSpaceOnUse">
<stop offset="0.01" stop-color="#050223" stop-opacity="0"/>
<stop offset="1" stop-color="#0CF9FF"/>
</linearGradient>
<linearGradient id="paint7_linear_55_537" x1="111.515" y1="8.04677" x2="109.836" y2="315.271" gradientUnits="userSpaceOnUse">
<stop stop-color="#0CF9FF"/>
<stop offset="0.99" stop-color="#050223" stop-opacity="0"/>
</linearGradient>
<linearGradient id="paint8_linear_55_537" x1="-24417.4" y1="25852.9" x2="-24405.8" y2="23740.5" gradientUnits="userSpaceOnUse">
<stop offset="0.01" stop-color="#050223" stop-opacity="0"/>
<stop offset="1" stop-color="#0CF9FF"/>
</linearGradient>
</defs>
</svg>
